Roberto is a young and ambitious lawyer who is going to marry Sara. His whole life is perfectly planned out. During a expropriation which he is in charge of, he meets Micol, a gorgeous and provocative young woman from a small village in Tuscany. This is when things start to get complicated... Fabio, a famous anchorman, has been the perfect husband for twenty five years. At a party one night, he meets Eliana, a femme fatale full of surprises. This one-night stand proves to be more than what he bargained for when she refuses to leave... Adrian is an American art history professor who moved to Rome after his divorce. He is friends with Augusto, the building's concierge, whose ebullient daughter Viola is about to disrupt his peaceful existence and relight his fire...

IMDB rating: 5.8/10 (from 524 users)

CAST:

Robert De Niro...................Adrian
Monica Bellucci..................Viola
Riccardo Scamarcio...............Roberto
Michele Placido..................Augusto
Laura Chiatti....................Micol
Valeria Solarino.................Sara
Donatella Finocchiaro............Eliana 
Carlo Verdone....................Fabio
Vittorio Emanuele Propizio.......Cupido
Vincenzo Alfieri.................Francesco
Marina Rocco.....................Giorgia

Format                           : Matroska
File size                        : 1 000 MiB
Duration                         : 2h 1mn
Overall bit rate                 : 1 154 Kbps
Encoded date                     : UTC 2011-09-29 21:09:47
Writing application              : mkvmerge v4.9.1 ('Ich will') creado el Jul 11 2011 23:53:15
Writing library                  : libebml v1.2.1 + libmatroska v1.1.1

Video
ID                               : 1
Format                           : AVC
Format/Info                      : Advanced Video Codec
Format profile                   : Main@L3.0
Format settings, CABAC           : Yes
Format settings, ReFrames        : 4 frames
Muxing mode                      : Container profile=Unknown@3.0
Codec ID                         : V_MPEG4/ISO/AVC
Duration                         : 2h 1mn
Bit rate                         : 1 003 Kbps
Nominal bit rate                 : 1 023 Kbps
Width                            : 624 pixels
Height                           : 336 pixels
Display aspect ratio             : 1.857
Frame rate mode                  : Variable
Frame rate                       : 25.000 fps
Resolution                       : 8 bits
Colorimetry                      : 4:2:0
Scan type                        : Progressive
Bits/(Pixel*Frame)               : 0.191
Stream size                      : 869 MiB (87%)
Writing library                  : x264 core 112

Audio
ID                               : 2
Format                           : AC-3
Format/Info                      : Audio Coding 3
Codec ID                         : A_AC3
Duration                         : 2h 1mn
Bit rate mode                    : Constant
Bit rate                         : 128 Kbps
Channel(s)                       : 2 channels
Channel positions                : Front: L R
Sampling rate                    : 48.0 KHz
Stream size                      : 111 MiB (11%)
Language                         : Italian

Text(subtitles)
ID                               : 3
Format                           : VobSub
Codec ID                         : S_VOBSUB
Codec ID/Info                    : The same subtitle format used on DVDs
Language                         : ROMANIAN
